<mxfile host="app.diagrams.net" modified="2024-05-25T15:58:18.456Z" agent="Mozilla/5.0 (Windows NT 10.0; Win64; x64) AppleWebKit/537.36 (KHTML, like Gecko) Chrome/125.0.0.0 Safari/537.36" etag="rs5wF0PjXbVVbldwjeLW" version="24.4.8" type="device">
  <diagram name="Страница — 1" id="YXI1DuQvckMDP0T-TnGh">
    <mxGraphModel dx="663" dy="745" grid="1" gridSize="10" guides="1" tooltips="1" connect="1" arrows="1" fold="1" page="1" pageScale="1" pageWidth="827" pageHeight="1169" math="0" shadow="0">
      <root>
        <mxCell id="0" />
        <mxCell id="1" parent="0" />
        <mxCell id="7-_sMZaQ0zrNDQp15_eP-2" value="" style="rounded=1;whiteSpace=wrap;html=1;" vertex="1" parent="1">
          <mxGeometry x="220" y="300" width="250" height="150" as="geometry" />
        </mxCell>
        <mxCell id="7-_sMZaQ0zrNDQp15_eP-3" value="" style="rounded=1;whiteSpace=wrap;html=1;" vertex="1" parent="1">
          <mxGeometry x="220" y="140" width="250" height="130" as="geometry" />
        </mxCell>
        <mxCell id="7-_sMZaQ0zrNDQp15_eP-4" value="" style="rounded=1;whiteSpace=wrap;html=1;" vertex="1" parent="1">
          <mxGeometry x="220" y="470" width="250" height="130" as="geometry" />
        </mxCell>
        <mxCell id="7-_sMZaQ0zrNDQp15_eP-5" value="Пользователь" style="rounded=1;whiteSpace=wrap;html=1;" vertex="1" parent="1">
          <mxGeometry x="285" y="40" width="120" height="60" as="geometry" />
        </mxCell>
        <mxCell id="7-_sMZaQ0zrNDQp15_eP-8" value="Данные" style="strokeWidth=2;html=1;shape=mxgraph.flowchart.database;whiteSpace=wrap;" vertex="1" parent="1">
          <mxGeometry x="280" y="620" width="120" height="95" as="geometry" />
        </mxCell>
        <mxCell id="7-_sMZaQ0zrNDQp15_eP-10" value="Слой&amp;nbsp;Представление (View)" style="text;html=1;align=center;verticalAlign=middle;whiteSpace=wrap;rounded=0;" vertex="1" parent="1">
          <mxGeometry x="280" y="140" width="120" height="30" as="geometry" />
        </mxCell>
        <mxCell id="7-_sMZaQ0zrNDQp15_eP-11" value="addDish.fxml" style="rounded=1;whiteSpace=wrap;html=1;" vertex="1" parent="1">
          <mxGeometry x="230" y="180" width="100" height="40" as="geometry" />
        </mxCell>
        <mxCell id="7-_sMZaQ0zrNDQp15_eP-12" value="DishDetails.fxml" style="rounded=1;whiteSpace=wrap;html=1;" vertex="1" parent="1">
          <mxGeometry x="360" y="180" width="99" height="40" as="geometry" />
        </mxCell>
        <mxCell id="7-_sMZaQ0zrNDQp15_eP-13" value="hello-view.fxml" style="rounded=1;whiteSpace=wrap;html=1;" vertex="1" parent="1">
          <mxGeometry x="300" y="230" width="90" height="30" as="geometry" />
        </mxCell>
        <mxCell id="7-_sMZaQ0zrNDQp15_eP-14" value="Слой контроллер (Controller)" style="text;html=1;align=center;verticalAlign=middle;whiteSpace=wrap;rounded=0;" vertex="1" parent="1">
          <mxGeometry x="290" y="300" width="135" height="30" as="geometry" />
        </mxCell>
        <mxCell id="7-_sMZaQ0zrNDQp15_eP-15" value="DishDetailsController" style="rounded=1;whiteSpace=wrap;html=1;" vertex="1" parent="1">
          <mxGeometry x="230" y="330" width="120" height="30" as="geometry" />
        </mxCell>
        <mxCell id="7-_sMZaQ0zrNDQp15_eP-16" value="Слой&amp;nbsp; Модель (Model)" style="text;html=1;align=center;verticalAlign=middle;whiteSpace=wrap;rounded=0;" vertex="1" parent="1">
          <mxGeometry x="294.5" y="470" width="101" height="30" as="geometry" />
        </mxCell>
        <mxCell id="7-_sMZaQ0zrNDQp15_eP-17" value="HelloController" style="rounded=1;whiteSpace=wrap;html=1;" vertex="1" parent="1">
          <mxGeometry x="230" y="370" width="120" height="30" as="geometry" />
        </mxCell>
        <mxCell id="7-_sMZaQ0zrNDQp15_eP-18" value="AddDishController" style="rounded=1;whiteSpace=wrap;html=1;" vertex="1" parent="1">
          <mxGeometry x="230" y="410" width="120" height="30" as="geometry" />
        </mxCell>
        <mxCell id="7-_sMZaQ0zrNDQp15_eP-19" value="TextDivider" style="rounded=1;whiteSpace=wrap;html=1;" vertex="1" parent="1">
          <mxGeometry x="364" y="330" width="100" height="30" as="geometry" />
        </mxCell>
        <mxCell id="7-_sMZaQ0zrNDQp15_eP-22" value="DishDAO" style="rounded=1;whiteSpace=wrap;html=1;" vertex="1" parent="1">
          <mxGeometry x="225" y="500" width="110" height="30" as="geometry" />
        </mxCell>
        <mxCell id="7-_sMZaQ0zrNDQp15_eP-23" value="DishDAOImpl" style="rounded=1;whiteSpace=wrap;html=1;" vertex="1" parent="1">
          <mxGeometry x="339" y="500" width="120" height="30" as="geometry" />
        </mxCell>
        <mxCell id="7-_sMZaQ0zrNDQp15_eP-24" value="DatabaseManager" style="rounded=1;whiteSpace=wrap;html=1;" vertex="1" parent="1">
          <mxGeometry x="230" y="555" width="110" height="30" as="geometry" />
        </mxCell>
        <mxCell id="7-_sMZaQ0zrNDQp15_eP-25" value="Dish" style="rounded=1;whiteSpace=wrap;html=1;" vertex="1" parent="1">
          <mxGeometry x="344" y="555" width="120" height="30" as="geometry" />
        </mxCell>
        <mxCell id="7-_sMZaQ0zrNDQp15_eP-27" value="" style="endArrow=classic;startArrow=classic;html=1;rounded=0;entryX=0.5;entryY=1;entryDx=0;entryDy=0;exitX=0.525;exitY=0.316;exitDx=0;exitDy=0;exitPerimeter=0;" edge="1" parent="1" source="7-_sMZaQ0zrNDQp15_eP-8" target="7-_sMZaQ0zrNDQp15_eP-4">
          <mxGeometry width="50" height="50" relative="1" as="geometry">
            <mxPoint x="330" y="620" as="sourcePoint" />
            <mxPoint x="380" y="570" as="targetPoint" />
          </mxGeometry>
        </mxCell>
        <mxCell id="7-_sMZaQ0zrNDQp15_eP-28" value="" style="endArrow=classic;startArrow=classic;html=1;rounded=0;entryX=0.5;entryY=1;entryDx=0;entryDy=0;exitX=0.5;exitY=0;exitDx=0;exitDy=0;" edge="1" parent="1" source="7-_sMZaQ0zrNDQp15_eP-16" target="7-_sMZaQ0zrNDQp15_eP-2">
          <mxGeometry width="50" height="50" relative="1" as="geometry">
            <mxPoint x="340" y="470" as="sourcePoint" />
            <mxPoint x="390" y="420" as="targetPoint" />
          </mxGeometry>
        </mxCell>
        <mxCell id="7-_sMZaQ0zrNDQp15_eP-30" value="" style="endArrow=classic;startArrow=classic;html=1;rounded=0;exitX=0.422;exitY=-0.033;exitDx=0;exitDy=0;exitPerimeter=0;entryX=0.5;entryY=1;entryDx=0;entryDy=0;" edge="1" parent="1" source="7-_sMZaQ0zrNDQp15_eP-14" target="7-_sMZaQ0zrNDQp15_eP-3">
          <mxGeometry width="50" height="50" relative="1" as="geometry">
            <mxPoint x="320" y="320" as="sourcePoint" />
            <mxPoint x="370" y="270" as="targetPoint" />
          </mxGeometry>
        </mxCell>
        <mxCell id="7-_sMZaQ0zrNDQp15_eP-31" value="" style="endArrow=classic;startArrow=classic;html=1;rounded=0;entryX=0.5;entryY=1;entryDx=0;entryDy=0;exitX=0.558;exitY=-0.033;exitDx=0;exitDy=0;exitPerimeter=0;" edge="1" parent="1" source="7-_sMZaQ0zrNDQp15_eP-10" target="7-_sMZaQ0zrNDQp15_eP-5">
          <mxGeometry width="50" height="50" relative="1" as="geometry">
            <mxPoint x="310" y="150" as="sourcePoint" />
            <mxPoint x="360" y="100" as="targetPoint" />
          </mxGeometry>
        </mxCell>
      </root>
    </mxGraphModel>
  </diagram>
</mxfile>
